<svg version="1.2" xmlns="http://www.w3.org/2000/svg" viewBox="0 0 100 100" width="100" height="100">
	<title>file (1)</title>
	<style>
		.s0 { fill: #ffffff } 
	</style>
	<path class="s0" d="m48.8 72.9q0 0-0.1-0.1-1.4-0.4-2.8-0.8 0 0 0 0-0.5-0.3-0.9-0.5c-0.7-0.5-1.4-0.9-2.1-1.5-1.6-1.3-2.9-3-4.3-4.7-0.4-0.6-1.1-0.9-1.7-1.4-2.2-1.7-4.4-3.3-6.6-5-0.8-0.7-1.6-1.4-2.4-2.2-0.3-0.2-0.3-0.4-0.2-0.7 1-3.1 2.2-6 4-8.7q0.8-1.3 1.7-2.6c0.2-0.3 0.4-0.5 0.4-0.8 0-1.1 0-2.2 0-3.4q0-0.5 0-1c0.1-0.6 0.1-1.2 0.2-1.7 0.1-1.1 0.3-2.3 0.6-3.4q0.6-2.6 1.2-5.1c0.2-0.7 0.4-1.3 0.6-2.1 4.4 2.3 7 5.9 8.7 10.3 3.3-0.7 6.6-0.6 9.9 0 1.8-4.4 4.4-8 8.8-10.3 0.6 2.2 1.1 4.2 1.6 6.3 0.4 1.6 0.6 3.2 0.9 4.8 0.1 0.9 0.2 1.7 0.2 2.6 0.1 1.1 0 2.1 0.1 3.2 0 0.3 0.3 0.6 0.4 0.8 0.8 1.3 1.6 2.5 2.4 3.8 1.3 2.3 2.2 4.7 3.1 7.1 0.2 0.4 0.1 0.7-0.2 1-1.6 1.4-3.2 2.8-4.9 4.1-1.6 1.3-3.4 2.4-5 3.7-1.1 1-2 2.1-3.1 3.1-1.2 1.1-2.3 2.3-3.6 3.3-1.8 1.4-3.9 2.1-6.2 2-0.2 0-0.3 0-0.5-0.1-0.1 0-0.2 0-0.2 0zm10.4-9.1c0 0 0 0 0 0q0-0.1 0.1-0.1c0 0 0 0 0 0q0-0.1 0.1-0.2 0 0 0.1 0 0-0.1 0.1-0.2 0.1 0 0.2-0.1 0-0.1 0.1-0.1c0 0 0 0 0 0q0-0.1 0.1-0.2 0 0 0.2-0.1 0-0.1 0.1-0.1c0 0-0.1 0 0 0q0.1-0.1 0.1-0.2c0 0 0 0 0.1 0q0 0 0-0.1c0 0 0 0 0.1 0 0 0 0.1-0.1 0.2-0.2q2.8-2.2 5.7-4.4c0.6-0.5 1.2-1 1.9-1.5 0.3-0.2 0.2-0.4-0.2-0.6q-0.3 0-0.6 0c0 0 0 0-0.1 0q-1.6 0-3.2 0 0 0 0 0c0.1 0 0.2 0 0.3 0.1-0.3 0-0.7 0-1.1 0-0.6-0.1-1.2 0-1.8 0.4 0 0 0 0 0 0q-0.5 0.1-0.9 0.3c0 0 0.1 0 0 0-0.1 0-0.2 0.1-0.4 0.2q-0.3 0.1-0.5 0.2c-1.1 0.4-2.2 0.9-2.9 1.9-0.7 0.8-1.3 1.8-1.9 2.7-0.4 0.8-0.8 1.6-1.3 2.3-0.2 0.4-0.5 0.4-0.8 0.1-0.3-0.2-0.6-0.3-0.9-0.4-1-0.1-1.9-0.1-2.9-0.2-0.7 0-1.4 0.1-1.9 0.5-0.7 0.5-0.8 0.3-1.1-0.3-0.7-1.1-1.4-2.2-2-3.4-1-1.8-2.7-2.8-4.5-3.5-1-0.4-2.1-0.5-3.1-0.7-1.5-0.3-2.9-0.3-4.3-0.1-0.2 0-0.4 0.1-0.6 0.2 0.2 0.2 0.2 0.4 0.4 0.5q1.3 1.2 2.7 2.2 1.9 1.4 3.8 2.8c0.5 0.3 1 0.5 1.4 0.9 0.8 1.1 1.6 2.3 2.5 3.3 1.3 1.5 2.7 2.8 4.5 3.7 1.3 0.6 2.8 0.8 4.2 0.6 1.5-0.2 2.8-1 3.9-2.1 1.2-1.2 2.4-2.4 3.6-3.6q0.1-0.1 0.2-0.3 0.1 0 0.2-0.1 0-0.1 0.1-0.1zm-2.5-13.5c-0.9 0.2-1.4 0.9-1.9 1.5-0.5 0.6-0.8 1.3-0.7 2 0 0.2 0.1 0.4 0.2 0.4 1.1 0.5 2.3 0.4 3.5 0.1 1.5-0.4 2.2-1.5 2.6-3 0.1-0.4 0-0.6-0.4-0.8-1.1-0.3-2.1-0.6-3.3-0.2zm-13.7-0.1q-1.5-0.3-2.9 0.4c-0.3 0.1-0.4 0.3-0.3 0.7 0.7 3.1 3.4 3.7 5.9 3 0.4-0.1 0.5-0.4 0.5-0.8-0.2-1.5-1.8-3.1-3.2-3.3z"/>
</svg>